<?xml version="1.0" encoding="utf-8"?><svg xmlns="http://www.w3.org/2000/svg" xmlns:xlink="http://www.w3.org/1999/xlink"><symbol viewBox="0 0 320 512" id="down" xmlns="http://www.w3.org/2000/svg"><!--!Font Awesome Free 6.7.1 by @fontawesome - https://fontawesome.com License - https://fontawesome.com/license/free Copyright 2024 Fonticons, Inc.--><path d="M2 334.5c-3.8 8.8-2 19 4.6 26l136 144c4.5 4.8 10.8 7.5 17.4 7.5s12.9-2.7 17.4-7.5l136-144c6.6-7 8.4-17.2 4.6-26S305.5 320 296 320h-72V32c0-17.7-14.3-32-32-32h-64c-17.7 0-32 14.3-32 32v288H24c-9.6 0-18.2 5.7-22 14.5z"/></symbol><symbol fill="none" viewBox="0 0 31.914 61" id="left" xmlns="http://www.w3.org/2000/svg"><path d="M.67 32.17L28 60.31c.9.92 2.35.92 3.24-.01.89-.92.89-2.42-.01-3.34L5.53 30.49 31.24 4.03c.89-.92.89-2.42 0-3.34C30.79.23 30.2 0 29.62 0c-.59 0-1.17.23-1.62.69L.67 28.82c-.43.44-.67 1.05-.67 1.67 0 .63.24 1.24.67 1.68z" fill="#FFF"/></symbol><symbol fill="none" viewBox="0 0 31.914 61" id="right" xmlns="http://www.w3.org/2000/svg"><path d="M31.24 28.82L3.9.68C3.01-.24 1.56-.23.66.69c-.89.92-.89 2.42.01 3.34l25.7 26.47L.67 56.96c-.9.92-.9 2.42-.01 3.34.45.46 1.04.7 1.63.7.58 0 1.17-.24 1.61-.7l27.34-28.13c.43-.44.67-1.05.67-1.67 0-.63-.24-1.24-.67-1.68z" fill="#FFF"/></symbol></svg>